HIERARCHY
ROOT Hips
{
  OFFSET 1.44925e-005 102.336 -0.101585
  CHANNELS 6 Xposition Yposition Zposition Zrotation Xrotation Yrotation
  JOINT LeftUpLeg
  {
    OFFSET 8.9458 -8.66707 0.101652
    CHANNELS 3 Zrotation Xrotation Yrotation
    JOINT LeftLeg
    {
      OFFSET 0 -44.4227 1.3727
      CHANNELS 3 Zrotation Xrotation Yrotation
      JOINT LeftFoot
      {
        OFFSET -0.253549 -42.0924 -1.46059
        CHANNELS 3 Zrotation Xrotation Yrotation
        JOINT LeftToes
        {
          OFFSET -0.04 -4.41509 8.4991
          CHANNELS 3 Zrotation Xrotation Yrotation
          End Site
          {
            OFFSET 0.08 -0.047448 9.77979
          }
        }
      }
    }
  }
  JOINT Spine
  {
    OFFSET 0 11.8905 0
    CHANNELS 3 Zrotation Xrotation Yrotation
    JOINT Spine1
    {
      OFFSET 0 25.6574 0.127663
      CHANNELS 3 Zrotation Xrotation Yrotation
      JOINT RightShoulder
      {
        OFFSET -8.99 -0.362252 -0.22
        CHANNELS 3 Zrotation Xrotation Yrotation
        JOINT RightArm
        {
          OFFSET -10.2827 -0.00338 0.322123
          CHANNELS 3 Zrotation Xrotation Yrotation
          JOINT RightForeArm
          {
            OFFSET -26.364 0.099144 -1.42434
            CHANNELS 3 Zrotation Xrotation Yrotation
            JOINT RightHand
            {
              OFFSET -22.0324 0.085362 1.02216
              CHANNELS 3 Zrotation Xrotation Yrotation
              End Site
              {
                OFFSET -13.3284 -0.6 1.50291
              }
            }
          }
        }
      }
      JOINT LeftShoulder1
      {
        OFFSET 8.99 -0.362252 -0.22
        CHANNELS 3 Zrotation Xrotation Yrotation
        JOINT LeftArm
        {
          OFFSET 10.2827 -0.00337999 0.322123
          CHANNELS 3 Zrotation Xrotation Yrotation
          JOINT LeftForeArm
          {
            OFFSET 26.2597 0.099144 -1.42434
            CHANNELS 3 Zrotation Xrotation Yrotation
            JOINT LeftHand
            {
              OFFSET 22.0902 0.085362 1.02216
              CHANNELS 3 Zrotation Xrotation Yrotation
              End Site
              {
                OFFSET 13.419 -0.6 1.50291
              }
            }
          }
        }
      }
      JOINT Head
      {
        OFFSET 0 8.73416 0.011341
        CHANNELS 3 Zrotation Xrotation Yrotation
        End Site
        {
          OFFSET -0.29 12.7742 2.51395
        }
      }
    }
  }
  JOINT RightUpLeg
  {
    OFFSET -8.9458 -8.66707 0.101652
    CHANNELS 3 Zrotation Xrotation Yrotation
    JOINT RightLeg
    {
      OFFSET 0 -44.4227 1.3727
      CHANNELS 3 Zrotation Xrotation Yrotation
      JOINT RightFoot
      {
        OFFSET 0.253549 -42.0924 -1.46059
        CHANNELS 3 Zrotation Xrotation Yrotation
        JOINT RightToes
        {
          OFFSET 0.04 -4.41509 8.4991
          CHANNELS 3 Zrotation Xrotation Yrotation
          End Site
          {
            OFFSET -0.08 -0.137448 9.77979
          }
        }
      }
    }
  }
}
MOTION
Frames:	19
Frame Time:	0.0333333
189.448 103.085 7.38489 -3.1356 -0.580996 -91.8014 -1.41415 0.175088 1.48982 0.0365311 8.55748 19.4504 -1.70087 -10.2492 0.00553348 -1.36077e-009 8.75213e-006 -1.47031e-008 0.149005 7.5224 -0.268431 -0.950602 -3.72509 -0.0768583 36.6668 1.75692 0.085284 41.1209 -17.0209 2.94936 7.45853 38.0197 9.25967 -10.8387 9.35994 0.721262 -44.4276 3.60607 -3.54959 -27.7126 -11.3894 -0.10948 -6.1919 35.8804 -12.858 5.82328 9.61819 -0.917488 1.92559 -1.80552 -0.607359 -1.50365 0.842373 -4.31145 -0.111914 10.592 -8.31529 3.87733 -13.0306 -0.0189832 0.0462048 0.000530889 0.662642 
189.458 103.085 7.39179 -3.10461 -0.582669 -91.7764 -1.42759 0.111232 1.46327 0.0538948 8.59918 19.4521 -1.71622 -10.2455 0.00553342 -1.36077e-009 8.75213e-006 -1.47031e-008 0.195336 7.51487 -0.288894 -1.02441 -3.74739 -0.0768603 36.8636 1.75692 0.085284 40.9513 -16.8782 2.93278 7.51945 37.6603 9.27721 -10.9324 9.36158 0.721265 -44.3568 3.59833 -3.55005 -27.6954 -11.2358 0.0429226 -5.85396 35.8574 -13.2493 5.82328 9.61819 -0.917488 1.76309 -1.81173 -0.83199 -1.5072 0.796539 -4.3049 -0.113187 10.6084 -8.33576 3.90867 -13.0301 -0.0189832 0.0462048 0.000530889 0.662642 
189.467 103.085 7.40114 -3.0859 -0.584734 -91.7597 -1.44245 0.0675316 1.43923 0.0688602 8.62933 19.4578 -1.72168 -10.2372 0.00553327 -1.36077e-009 8.75213e-006 -1.47031e-008 0.200541 7.51987 -0.29168 -1.00683 -3.73186 -0.07572 36.9628 1.75692 0.085284 40.8556 -16.8781 2.92912 7.41711 37.75 9.38564 -10.7226 9.37128 0.724929 -44.355 3.60174 -3.55633 -27.5567 -11.3366 0.274732 -5.48549 35.948 -13.6267 5.82328 9.61819 -0.917488 1.63113 -1.77981 -1.04035 -1.5096 0.767081 -4.29074 -0.127012 10.6187 -8.34214 3.95884 -13.0302 -0.0189832 0.0462048 0.000530889 0.662642 
189.466 103.085 7.40629 -3.09304 -0.586538 -91.7637 -1.44937 0.0687338 1.43275 0.0723814 8.64617 19.4688 -1.73168 -10.2438 0.00553339 -1.36077e-009 8.75213e-006 -1.47031e-008 0.128329 7.52097 -0.268505 -0.859211 -3.66557 -0.0770581 36.8456 1.75692 0.085284 40.958 -16.8848 2.94742 7.19228 38.1018 9.59072 -10.4134 9.38803 0.719925 -44.4405 3.61777 -3.57468 -27.3287 -11.6238 0.474925 -5.3997 36.0438 -13.6771 5.82328 9.61819 -0.917488 1.60547 -1.74664 -1.08656 -1.50734 0.777282 -4.29342 -0.13087 10.6196 -8.31362 3.99111 -13.0386 -0.0189838 0.0462048 0.000530889 0.662642 
189.466 103.085 7.40852 -3.07127 -0.571004 -91.7316 -1.43047 0.0111776 1.43276 0.0774541 8.71388 19.4368 -1.75136 -10.2755 0.00553394 -1.36077e-009 8.75213e-006 -1.47031e-008 0.0735342 7.47995 -0.270164 -0.740175 -3.61464 -0.0991005 36.7423 1.75692 0.085284 41.0873 -16.6938 2.98579 7.07246 38.0285 9.7773 -10.4204 9.39576 0.621374 -44.4699 3.62508 -3.58447 -27.1389 -11.6538 0.637501 -5.49432 35.9813 -13.5843 5.82328 9.61819 -0.917488 1.63225 -1.69552 -1.05605 -1.49341 0.763112 -4.28798 -0.115951 10.6125 -8.36005 3.97429 -13.0394 -0.0189839 0.0462048 0.000530889 0.662642 
189.467 103.085 7.4093 -3.04626 -0.555973 -91.7057 -1.41224 -0.0409413 1.4314 0.0815091 8.76142 19.4128 -1.74607 -10.2964 0.00553431 -1.36077e-009 8.75213e-006 -1.47031e-008 0.0920441 7.41748 -0.286023 -0.765364 -3.58236 -0.11061 36.8017 1.75749 0.085284 41.106 -16.4469 3.0474 7.12186 37.5613 9.84132 -10.6971 9.39754 0.427685 -44.3746 3.61258 -3.57457 -27.0256 -11.5337 0.76944 -5.58754 35.9899 -13.4925 5.82328 9.61819 -0.917488 1.7958 -1.49981 -0.978451 -1.46774 0.730565 -4.26566 -0.116906 10.6252 -8.44279 3.93898 -13.0322 -0.0189833 0.0462048 0.000530889 0.662642 
189.445 103.085 7.40889 -3.12177 -0.59162 -91.8095 -1.45815 0.121237 1.43007 0.0689418 8.63994 19.5247 -1.70236 -10.2665 0.00553379 -1.36077e-009 8.75213e-006 -1.47031e-008 0.099217 7.39615 -0.238869 -0.852326 -3.49146 -0.045235 36.9006 1.75939 0.0852841 41.0828 -16.2758 3.12078 7.22229 37.1083 9.83071 -10.9662 9.39331 0.318415 -44.2519 3.59497 -3.55877 -26.9166 -11.8637 0.847216 -5.7291 36.419 -13.2251 5.82328 9.61819 -0.917488 2.09492 -1.22129 -0.813599 -1.50329 0.77618 -4.28593 -0.156806 10.6967 -8.33383 3.95061 -13.0613 -0.0189856 0.0462048 0.000530889 0.662642 
189.403 103.085 7.40752 -3.26784 -0.663091 -91.9819 -1.54723 0.421191 1.42959 0.0483169 8.42723 19.7085 -1.66105 -10.2154 0.0055329 -1.36077e-009 8.75213e-006 -1.47031e-008 0.0248231 7.41129 -0.144225 -0.861469 -3.34997 0.0557406 36.9079 1.76057 0.0852842 41.1094 -16.0209 3.17596 7.28966 36.6753 9.87316 -11.182 9.37435 0.412278 -44.1995 3.58817 -3.55339 -26.7847 -12.7279 0.871933 -6.04631 37.1056 -12.664 5.82328 9.61819 -0.917488 2.2335 -1.16985 -0.635961 -1.59582 0.896465 -4.36176 -0.197398 10.7876 -8.05964 4.00439 -13.1279 -0.0189907 0.0462048 0.000530889 0.662642 
189.383 103.085 7.40158 -3.31154 -0.683486 -91.9992 -1.56743 0.502457 1.43266 0.0443302 8.3858 19.7235 -1.65713 -10.2117 0.00553283 -1.36077e-009 8.75213e-006 -1.47031e-008 -0.0447113 7.39089 -0.122797 -0.815257 -3.28286 0.0694893 36.9059 1.76158 0.0852842 41.1301 -15.62 3.19948 7.31344 36.1829 10.0047 -11.3552 9.35187 0.566166 -44.1754 3.58625 -3.55329 -26.6919 -13.4862 0.897781 -6.41804 37.5687 -12.089 5.82328 9.61819 -0.917488 2.03941 -1.42192 -0.603127 -1.62605 0.953017 -4.39612 -0.192555 10.7977 -7.97792 4.03017 -13.1617 -0.0189933 0.0462048 0.000530889 0.662642 
189.393 103.085 7.3894 -3.23306 -0.640521 -91.8653 -1.50498 0.337654 1.44324 0.056226 8.51906 19.5674 -1.67004 -10.2513 0.00553352 -1.36077e-009 8.75213e-006 -1.47031e-008 -0.00816136 7.32766 -0.188256 -0.853715 -3.32239 0.00699174 36.9992 1.76242 0.0852842 41.0767 -15.3862 3.2165 7.2794 35.9984 10.1193 -11.3227 9.3499 0.606716 -44.1065 3.57615 -3.54393 -26.6696 -13.7119 0.961601 -6.58021 37.7218 -11.8562 5.82328 9.61819 -0.917488 1.82092 -1.61982 -0.732144 -1.56112 0.912809 -4.34512 -0.168733 10.7284 -8.16304 4.01214 -13.1396 -0.0189916 0.0462048 0.000530889 0.662642 
189.385 103.085 7.3857 -3.23491 -0.635878 -91.8603 -1.4983 0.346485 1.44871 0.0583838 8.51697 19.5482 -1.66428 -10.2554 0.00553359 -1.36077e-009 8.75213e-006 -1.47031e-008 0.0689161 7.30756 -0.192463 -0.99767 -3.33434 0.0278079 37.0966 1.76312 0.0852843 41.0216 -15.552 3.25761 7.21471 36.3701 10.1003 -11.0822 9.36203 0.611653 -44.0371 3.56298 -3.52855 -26.6763 -13.641 1.04024 -6.48165 37.8058 -11.9603 5.82328 9.61819 -0.917488 1.90334 -1.50132 -0.893784 -1.54111 0.928249 -4.31964 -0.186579 10.7083 -8.20262 4.00384 -13.1412 -0.0189917 0.0462048 0.000530889 0.662642 
189.341 103.085 7.3935 -3.39201 -0.710147 -92.062 -1.60137 0.669429 1.43972 0.0458481 8.29074 19.7658 -1.64095 -10.2032 0.00553268 -1.36077e-009 8.75213e-006 -1.47031e-008 0.0649636 7.36909 -0.0707582 -1.10495 -3.25275 0.174458 37.0575 1.7637 0.0852843 41.0655 -15.9026 3.31888 7.21432 36.8769 9.94942 -10.9417 9.35991 0.721051 -44.056 3.56288 -3.52546 -26.6906 -13.5647 1.09687 -6.29711 37.8299 -12.1696 5.82328 9.61819 -0.917488 2.11344 -1.25607 -1.03499 -1.64001 1.06527 -4.39966 -0.233101 10.7836 -7.9106 4.01477 -13.2049 -0.0189967 0.0462048 0.000530889 0.662642 
189.314 103.085 7.39431 -3.48528 -0.756663 -92.1703 -1.66364 0.851842 1.43208 0.040318 8.17073 19.8939 -1.62593 -10.1733 0.00553216 -1.36077e-009 8.75213e-006 -1.47031e-008 0.00650134 7.42277 0.0359877 -1.08571 -3.204 0.282119 36.9339 1.76418 0.0852843 41.16 -16.1471 3.3697 7.29172 37.0958 9.77474 -11.0044 9.34677 0.834539 -44.1377 3.57697 -3.54078 -26.7579 -13.3947 1.11973 -6.14312 37.6321 -12.393 5.82328 9.61819 -0.917488 2.15158 -1.13565 -1.178 -1.72005 1.14676 -4.48782 -0.223629 10.8372 -7.70529 3.99206 -13.2462 -0.0189999 0.0462048 0.000530889 0.662642 
189.347 103.085 7.37465 -3.35509 -0.696309 -91.9859 -1.56982 0.574458 1.44388 0.0511697 8.37945 19.6971 -1.64078 -10.2189 0.00553296 -1.36077e-009 8.75213e-006 -1.47031e-008 0.000873901 7.39036 0.0072885 -1.02166 -3.28722 0.238143 36.8939 1.76458 0.0856849 41.1726 -16.2799 3.38884 7.31966 37.2365 9.69013 -10.9666 9.35134 0.804871 -44.1692 3.58925 -3.56013 -26.9155 -13.0391 1.09875 -5.98191 37.3263 -12.6649 5.82328 9.61819 -0.917488 2.10339 -1.15583 -1.25309 -1.65943 1.03773 -4.47541 -0.128935 10.781 -7.92521 3.93442 -13.1992 -0.0189962 0.0462048 0.000530889 0.662642 
189.4 103.085 7.34657 -3.16213 -0.60344 -91.7149 -1.42803 0.167363 1.46089 0.0683514 8.67762 19.3971 -1.68774 -10.2846 0.0055341 -1.36077e-009 8.75213e-006 -1.47031e-008 0.0425135 7.32263 -0.080332 -1.0069 -3.39991 0.141378 36.9529 1.76491 0.0877198 41.0984 -16.3978 3.38365 7.2139 37.6162 9.72454 -10.6994 9.3718 0.732462 -44.1259 3.59142 -3.57099 -27.1216 -12.7359 1.01536 -5.81381 37.201 -12.9077 5.82328 9.61819 -0.917488 2.17729 -1.27177 -1.15784 -1.54021 0.87684 -4.40375 -0.0363734 10.6792 -8.30287 3.90742 -13.1233 -0.0189903 0.0462048 0.000530889 0.662642 
189.421 103.085 7.32389 -3.12596 -0.567628 -91.6136 -1.36745 0.0607837 1.47595 0.0775817 8.77739 19.2719 -1.74432 -10.3061 0.00553448 -1.36077e-009 8.75213e-006 -1.47031e-008 0.02994 7.33803 -0.102751 -0.99062 -3.42955 0.114156 36.9391 1.76521 0.0936948 41.094 -16.4976 3.37941 7.06006 38.0482 9.81038 -10.521 9.3808 0.747766 -44.1228 3.5958 -3.58007 -27.2767 -12.7744 0.879147 -5.76066 37.2932 -12.9488 5.82328 9.61819 -0.917488 2.2925 -1.38811 -0.962924 -1.46585 0.874596 -4.33866 -0.0408982 10.5991 -8.48086 3.92779 -13.0796 -0.0190526 0.0462048 0.000530889 0.662642 
189.417 103.085 7.29675 -3.20655 -0.551596 -91.6421 -1.3305 0.167953 1.52148 0.0726602 8.75076 19.2536 -1.7771 -10.3028 0.00541849 -1.36077e-009 8.75213e-006 -1.47031e-008 -0.0596942 7.45741 -0.0686618 -0.89084 -3.43753 0.13113 36.7475 1.76548 0.107856 41.276 -16.5511 3.3954 7.00269 38.1397 9.84961 -10.6664 9.3781 0.708434 -44.2581 3.61493 -3.59694 -27.3014 -13.1228 0.742855 -5.87129 37.4258 -12.7683 5.82328 9.61819 -0.917488 2.17054 -1.34659 -0.931762 -1.38759 1.003 -4.24836 -0.120112 10.5115 -8.53949 3.93425 -13.0368 -0.019423 0.0462048 0.000530889 0.662642 
189.424 103.085 7.25278 -3.24154 -0.491971 -91.6564 -1.22277 0.186568 1.6151 0.0528393 8.79196 19.1746 -1.78607 -10.3197 0.00491732 -1.36077e-009 8.75213e-006 -1.47031e-008 -0.149581 7.57429 -0.0496303 -0.773625 -3.50638 0.126494 36.5159 1.76576 0.118766 41.5483 -16.5136 3.43056 7.09394 37.7661 9.81084 -10.9922 9.37721 0.489019 -44.454 3.63812 -3.61238 -27.2237 -13.4822 0.661435 -5.99818 37.5166 -12.573 5.82328 9.61819 -0.917488 1.56234 -1.36335 -1.29007 -1.25702 1.08638 -4.12428 -0.169805 10.4077 -8.6569 3.89533 -12.9745 -0.0199425 0.0462048 0.000530889 0.662642 
189.432 103.086 7.20657 -3.22335 -0.428498 -91.665 -1.10569 0.125301 1.70803 0.0315317 8.87576 19.0897 -1.80716 -10.349 0.00436683 -1.36077e-009 8.75213e-006 -1.47031e-008 -0.180515 7.59094 -0.055981 -0.797886 -3.56495 0.118333 36.4726 1.76606 0.114115 41.6947 -16.3078 3.47224 7.28092 37.0842 9.74565 -11.3363 9.37731 0.291968 -44.5083 3.64061 -3.60892 -27.1963 -13.6089 0.64181 -5.99238 37.5642 -12.5551 5.82328 9.61819 -0.917488 0.440481 -1.97896 -1.97992 -1.16283 1.09044 -4.06227 -0.140328 10.3515 -8.7185 3.85006 -12.9471 -0.0205783 0.0462048 0.000530889 0.662642 
